<?xml version="1.0" standalone="no"?>
<!DOCTYPE svg PUBLIC "-//W3C//DTD SVG 20010904//EN"
 "http://www.w3.org/TR/2001/REC-SVG-20010904/DTD/svg10.dtd">
<svg version="1.0" xmlns="http://www.w3.org/2000/svg"
 width="378.000000pt" height="378.000000pt" viewBox="0 0 378.000000 378.000000"
 preserveAspectRatio="xMidYMid meet">

<g transform="translate(0.000000,378.000000) scale(0.100000,-0.100000)"
fill="#D66371" stroke="none">
<path d="M1796 3475 c-56 -20 -105 -63 -140 -125 -28 -49 -31 -64 -31 -135 0
-96 21 -142 90 -203 106 -94 258 -96 364 -5 48 41 77 91 92 162 18 84 -24 202
-91 259 -8 7 -37 24 -65 37 -58 29 -155 33 -219 10z"/>
<path d="M1485 2892 c-49 -23 -99 -72 -124 -121 -10 -20 -39 -103 -65 -186
-25 -82 -51 -167 -57 -188 -10 -30 -21 -41 -53 -56 -38 -16 -415 -259 -513
-330 -96 -70 -91 -209 9 -272 26 -15 46 -19 88 -17 50 4 67 12 179 86 68 46
125 81 127 79 2 -2 -3 -24 -12 -48 -27 -72 -22 -157 12 -217 16 -27 43 -73 59
-102 32 -55 115 -194 226 -377 l68 -111 -85 -273 c-90 -292 -98 -341 -64 -396
69 -113 229 -99 284 25 24 57 155 496 176 593 23 108 19 129 -55 247 -32 51
-56 95 -53 97 2 2 26 -2 53 -10 65 -20 121 -18 172 4 23 11 185 118 360 238
175 121 345 237 378 257 76 48 141 110 168 161 17 31 22 58 22 115 0 85 -18
133 -70 185 -56 56 -98 70 -210 71 -99 0 -101 1 -177 43 -76 42 -80 46 -254
269 -97 125 -188 233 -202 241 -30 16 -87 9 -112 -14 -17 -15 -20 -15 -45 1
-41 27 -178 31 -230 6z m462 -400 c55 -70 64 -88 55 -101 -72 -100 -70 -189 5
-287 20 -27 21 -33 9 -43 -13 -11 -27 5 -88 101 -60 91 -78 129 -97 199 l-22
87 23 75 c27 88 21 89 115 -31z m-172 -468 c31 -48 53 -90 48 -94 -4 -3 -39
-28 -78 -54 l-69 -48 -18 22 c-10 12 -18 29 -18 38 0 26 62 222 71 222 4 0 33
-39 64 -86z"/>
<path d="M2734 2864 c-23 -8 -60 -30 -82 -49 -116 -100 -125 -292 -19 -403 58
-61 101 -77 204 -77 l92 0 6 -55 c15 -134 29 -209 49 -265 25 -70 132 -239
145 -230 14 8 51 175 51 227 0 103 -49 216 -137 317 l-42 48 39 43 c130 141
70 379 -113 447 -44 16 -144 14 -193 -3z"/>
</g>
</svg>
