<?xml version="1.0" standalone="no"?>
<!DOCTYPE svg PUBLIC "-//W3C//DTD SVG 20010904//EN"
 "http://www.w3.org/TR/2001/REC-SVG-20010904/DTD/svg10.dtd">
<svg version="1.0" xmlns="http://www.w3.org/2000/svg"
 width="327.000000pt" height="327.000000pt" viewBox="0 0 327.000000 327.000000"
 preserveAspectRatio="xMidYMid meet">

<g transform="translate(0.000000,327.000000) scale(0.100000,-0.100000)"
fill="#000000" stroke="none">
<path d="M1500 3264 c-338 -39 -597 -138 -846 -324 -362 -271 -591 -674 -644
-1135 -39 -341 47 -723 230 -1020 444 -722 1355 -987 2115 -615 611 298 981
967 905 1635 -85 738 -620 1308 -1351 1441 -82 15 -340 26 -409 18z m-150
-208 c0 -2 9 -48 20 -101 25 -123 25 -123 -7 -131 -16 -3 -62 -17 -103 -30
-41 -13 -80 -24 -86 -24 -10 0 -32 48 -91 197 -6 14 41 35 152 68 76 23 115
30 115 21z m-460 -311 c36 -55 59 -99 54 -104 -5 -4 -36 -28 -69 -53 -71 -54
-165 -151 -221 -228 -138 -188 -211 -381 -236 -617 l-12 -113 -112 0 c-62 0
-115 4 -118 8 -7 12 13 206 30 289 53 257 191 516 378 712 66 68 222 201 237
201 3 0 35 -43 69 -95z m820 -264 c39 -20 80 -82 80 -121 0 -22 8 -28 68 -48
103 -36 187 -87 268 -164 91 -87 139 -158 181 -268 77 -205 62 -418 -44 -610
-51 -92 -197 -235 -288 -282 -409 -210 -887 -17 -1032 417 -24 72 -27 95 -27
220 0 125 3 148 27 220 51 153 157 294 285 378 65 44 159 88 214 101 21 5 27
13 33 46 18 105 139 163 235 111z m1300 -336 c11 -25 30 -85 44 -134 l24 -90
-46 -10 c-81 -17 -183 -33 -185 -30 -8 12 -67 222 -64 225 5 6 190 82 200 83
4 1 16 -19 27 -44z m95 -592 c-28 -351 -146 -640 -361 -888 -71 -81 -208 -206
-262 -237 l-29 -17 -62 88 c-33 49 -61 93 -61 98 0 5 38 39 85 77 252 200 413
502 447 839 l12 117 118 0 119 0 -6 -77z m-2670 -175 c2 -7 14 -51 28 -98 13
-47 27 -92 30 -100 5 -12 -17 -25 -98 -59 -63 -26 -109 -40 -115 -35 -8 8 -62
179 -74 235 -6 26 -4 26 87 46 113 25 137 27 142 11z m215 -481 c93 -138 316
-318 486 -392 144 -62 328 -105 450 -105 l44 0 0 -121 0 -122 -92 7 c-404 30
-793 235 -1039 546 -35 45 -67 88 -72 95 -5 9 20 33 85 79 51 36 95 65 98 65
3 0 21 -23 40 -52z m1503 -519 l45 -107 -55 -21 c-65 -24 -213 -63 -219 -58
-5 5 -44 195 -44 214 0 7 19 18 43 24 23 6 74 21 112 34 39 13 71 23 71 22 1
0 22 -49 47 -108z"/>
<path d="M1452 2290 c-117 -31 -206 -83 -303 -180 -143 -142 -203 -285 -203
-485 0 -180 51 -319 167 -454 198 -231 549 -300 829 -162 333 164 474 583 309
916 -22 44 -61 106 -86 138 -80 101 -232 196 -370 232 -84 21 -251 19 -343 -5z"/>
</g>
</svg>
