<svg version="1.1" id="Layer_1" xmlns="http://www.w3.org/2000/svg" xmlns:xlink="http://www.w3.org/1999/xlink" x="0px" y="0px"
	 width="100%" viewBox="0 0 327 327" enable-background="new 0 0 327 327" xml:space="preserve">
<path fill="#044B9466" opacity="1.000000" stroke="none" 
	d="
M1.000000,117.000000 
	C1.000000,78.014717 1.000000,39.529434 1.000000,1.022075 
	C109.943619,1.022075 218.887253,1.022075 327.915436,1.022075 
	C327.915436,109.901901 327.915436,218.803879 327.915436,327.852936 
	C219.000153,327.852936 110.000099,327.852936 1.000000,327.852936 
	C1.000000,257.779541 1.000000,187.639771 1.000000,117.000000 
M74.004021,82.998741 
	C74.004021,82.998741 74.042061,83.047379 74.578835,82.802437 
	C75.126366,82.240746 75.673904,81.679062 76.754700,80.778137 
	C78.209389,79.256920 79.664078,77.735710 81.675148,75.830414 
	C86.477074,71.664581 91.278999,67.498749 96.215950,63.215778 
	C91.739006,56.570042 87.473740,50.238529 82.612801,43.022785 
	C73.688202,51.190842 65.232437,58.858891 56.886696,66.644882 
	C55.641502,67.806557 54.913296,69.522377 53.347874,71.282135 
	C40.235374,85.657913 31.187479,102.282745 25.305277,121.444725 
	C21.174885,135.528534 18.402239,149.787918 19.149378,164.719025 
	C26.939594,164.719025 34.149437,164.719025 41.856079,164.719025 
	C43.643223,149.426529 44.532413,134.109329 51.085224,119.278053 
	C56.680183,106.450882 64.117676,94.774712 73.512421,83.829285 
	C73.777977,83.627411 73.956543,83.366096 74.004021,82.998741 
M180.849854,43.977280 
	C186.886154,45.024254 192.922455,46.071228 199.335999,47.766506 
	C217.617935,53.118240 233.762375,62.273895 248.156998,75.657494 
	C252.493301,80.111984 256.829620,84.566467 261.114746,89.545837 
	C261.397369,89.739143 261.679962,89.932442 262.163727,90.670372 
	C262.756409,91.149879 263.349091,91.629379 263.997192,92.818344 
	C265.398132,93.664650 267.415588,95.584724 268.103729,95.189621 
	C274.341400,91.607948 280.346771,87.621727 286.835602,83.489395 
	C282.518860,78.132118 278.787506,73.501305 274.790283,68.263527 
	C268.895966,62.822891 263.001648,57.382252 256.821259,51.307877 
	C255.528564,50.347145 254.220978,49.405731 252.945526,48.422607 
	C242.643539,40.481834 231.391281,34.284763 218.755127,29.303307 
	C210.168854,26.924452 201.582581,24.545597 192.267212,21.782743 
	C183.306824,20.612265 174.346451,19.441786 165.381958,18.270771 
	C165.381958,27.421474 165.381958,35.152866 165.381958,42.583370 
	C170.524033,43.023041 175.261185,43.428089 180.849854,43.977280 
M308.128906,165.001556 
	C301.544586,165.001556 294.960266,165.001556 288.560059,165.001556 
	C287.989349,171.112030 287.555084,176.372849 286.996765,181.620483 
	C285.545227,195.263062 281.357574,208.184967 275.182739,220.285553 
	C265.974457,238.330673 253.506256,253.898361 236.658173,265.482361 
	C233.423126,267.706604 233.900803,269.497803 235.506775,271.970123 
	C238.027176,275.850098 240.770798,279.593628 243.131287,283.566406 
	C245.380325,287.351624 247.660675,287.721985 250.887207,284.698669 
	C258.932465,277.160095 267.540588,270.169556 275.113922,262.191254 
	C289.437195,247.102112 299.179688,229.077744 304.911835,209.203812 
	C308.232635,197.690292 309.938293,185.676804 311.782898,173.797028 
	C312.213165,171.025696 314.311707,166.533463 308.128906,165.001556 
M90.369789,263.102020 
	C80.387497,256.055267 72.270164,247.178604 65.210419,237.293304 
	C63.822014,235.349213 62.704823,232.905289 59.850101,234.748703 
	C54.112366,238.453751 48.515549,242.377029 42.066559,246.748489 
	C48.284527,254.337158 53.502689,261.823975 59.834049,268.206512 
	C74.293686,282.783081 91.267982,293.680023 110.380219,301.449127 
	C126.236870,307.894836 142.666336,310.922729 159.599548,312.015198 
	C163.252533,312.250885 165.299927,311.307617 165.052948,307.103668 
	C164.789703,302.622894 165.034134,298.114319 164.967819,293.619171 
	C164.926102,290.791351 163.847107,289.385101 160.579285,288.871521 
	C149.888000,287.191254 139.084534,285.674805 128.692703,282.774841 
	C114.938629,278.936584 102.243683,272.474884 90.369789,263.102020 
M285.438416,276.008881 
	C276.039520,284.287964 266.878693,292.861603 257.146545,300.728424 
	C251.864670,304.997955 245.610275,308.064362 239.910736,311.601379 
	C263.803986,311.601379 287.690430,311.601379 311.584717,311.601379 
	C311.584717,287.693726 311.584717,264.236237 311.584717,242.089279 
	C303.342316,252.807007 294.626892,264.139862 285.438416,276.008881 
M263.500031,18.003548 
	C255.836395,18.003548 248.172760,18.003548 240.509125,18.003548 
	C271.678864,34.787060 294.769836,59.016468 311.684082,90.808998 
	C311.684082,65.673378 311.684082,41.976864 311.684082,18.003510 
	C295.744446,18.003510 280.122223,18.003510 263.500031,18.003548 
M17.999825,257.503967 
	C17.999825,275.562714 17.999825,293.621429 17.999825,311.805359 
	C42.315277,311.805359 65.692062,311.805359 90.400894,311.805359 
	C58.652718,295.350281 35.153225,272.102051 17.999771,241.821274 
	C17.999771,246.716476 17.999771,251.611664 17.999825,257.503967 
M40.515835,57.011581 
	C54.121265,41.170979 70.377251,28.587900 89.619019,18.362190 
	C64.953087,18.362190 41.568974,18.362190 18.417212,18.362190 
	C18.417212,41.986000 18.417212,65.245445 18.417212,87.641937 
	C25.439579,77.844276 32.722298,67.683372 40.515835,57.011581 
M280.488159,123.048645 
	C282.254181,128.851273 284.020203,134.653900 285.842773,140.642303 
	C293.170288,139.247101 300.784668,137.797287 308.926758,136.246979 
	C307.606598,131.274368 306.569366,126.811600 305.221558,122.444702 
	C303.826538,117.924667 302.130127,113.497643 300.419891,108.614021 
	C293.757660,111.125801 287.585297,113.376755 281.475098,115.785332 
	C277.866302,117.207878 278.822632,119.794830 280.488159,123.048645 
M126.618271,24.156977 
	C121.596153,25.658659 116.601036,27.260542 111.541763,28.624374 
	C108.516640,29.439857 108.583878,31.031651 109.617950,33.438007 
	C111.822350,38.567780 113.945152,43.737511 115.914383,48.961361 
	C116.891441,51.553215 118.406784,52.040432 120.824295,51.129730 
	C124.377861,49.791077 127.916092,48.365097 131.559677,47.321239 
	C140.625031,44.724079 140.711929,44.789799 138.936020,35.671799 
	C138.044815,31.096048 136.869537,26.575624 135.772263,21.811068 
	C132.446930,22.620087 129.916336,23.235752 126.618271,24.156977 
M24.980309,208.484863 
	C26.363577,212.628036 27.746847,216.771225 29.255661,221.290436 
	C36.991203,217.864441 43.920658,214.795456 50.862186,211.721115 
	C48.551338,203.986115 46.388100,196.745193 43.979588,188.683273 
	C40.502098,189.372070 36.776943,189.827606 33.232967,190.888412 
	C29.409948,192.032745 23.588116,192.877441 22.571199,195.423630 
	C21.264280,198.695984 23.873877,203.532532 24.980309,208.484863 
z"/>
<path fill="#F1F3BE" opacity="1.000000" stroke="none" 
	d="
M308.587219,165.015030 
	C314.311707,166.533463 312.213165,171.025696 311.782898,173.797028 
	C309.938293,185.676804 308.232635,197.690292 304.911835,209.203812 
	C299.179688,229.077744 289.437195,247.102112 275.113922,262.191254 
	C267.540588,270.169556 258.932465,277.160095 250.887207,284.698669 
	C247.660675,287.721985 245.380325,287.351624 243.131287,283.566406 
	C240.770798,279.593628 238.027176,275.850098 235.506775,271.970123 
	C233.900803,269.497803 233.423126,267.706604 236.658173,265.482361 
	C253.506256,253.898361 265.974457,238.330673 275.182739,220.285553 
	C281.357574,208.184967 285.545227,195.263062 286.996765,181.620483 
	C287.555084,176.372849 287.989349,171.112030 288.560059,165.001556 
	C294.960266,165.001556 301.544586,165.001556 308.587219,165.015030 
z"/>
<path fill="#F2F4C0" opacity="1.000000" stroke="none" 
	d="
M90.673698,263.297668 
	C102.243683,272.474884 114.938629,278.936584 128.692703,282.774841 
	C139.084534,285.674805 149.888000,287.191254 160.579285,288.871521 
	C163.847107,289.385101 164.926102,290.791351 164.967819,293.619171 
	C165.034134,298.114319 164.789703,302.622894 165.052948,307.103668 
	C165.299927,311.307617 163.252533,312.250885 159.599548,312.015198 
	C142.666336,310.922729 126.236870,307.894836 110.380219,301.449127 
	C91.267982,293.680023 74.293686,282.783081 59.834049,268.206512 
	C53.502689,261.823975 48.284527,254.337158 42.066559,246.748489 
	C48.515549,242.377029 54.112366,238.453751 59.850101,234.748703 
	C62.704823,232.905289 63.822014,235.349213 65.210419,237.293304 
	C72.270164,247.178604 80.387497,256.055267 90.673698,263.297668 
z"/>
<path fill="#F2F5C1" opacity="1.000000" stroke="none" 
	d="
M285.674927,275.740784 
	C294.626892,264.139862 303.342316,252.807007 311.584717,242.089279 
	C311.584717,264.236237 311.584717,287.693726 311.584717,311.601379 
	C287.690430,311.601379 263.803986,311.601379 239.910736,311.601379 
	C245.610275,308.064362 251.864670,304.997955 257.146545,300.728424 
	C266.878693,292.861603 276.039520,284.287964 285.674927,275.740784 
z"/>
<path fill="#DD3A3A" opacity="1.000000" stroke="none" 
	d="
M264.000000,18.003529 
	C280.122223,18.003510 295.744446,18.003510 311.684082,18.003510 
	C311.684082,41.976864 311.684082,65.673378 311.684082,90.808998 
	C294.769836,59.016468 271.678864,34.787060 240.509125,18.003548 
	C248.172760,18.003548 255.836395,18.003548 264.000000,18.003529 
z"/>
<path fill="#F2F5C1" opacity="1.000000" stroke="none" 
	d="
M17.999798,257.005432 
	C17.999771,251.611664 17.999771,246.716476 17.999771,241.821274 
	C35.153225,272.102051 58.652718,295.350281 90.400894,311.805359 
	C65.692062,311.805359 42.315277,311.805359 17.999825,311.805359 
	C17.999825,293.621429 17.999825,275.562714 17.999798,257.005432 
z"/>
<path fill="#DC3939" opacity="1.000000" stroke="none" 
	d="
M40.260426,57.267025 
	C32.722298,67.683372 25.439579,77.844276 18.417212,87.641937 
	C18.417212,65.245445 18.417212,41.986000 18.417212,18.362190 
	C41.568974,18.362190 64.953087,18.362190 89.619019,18.362190 
	C70.377251,28.587900 54.121265,41.170979 40.260426,57.267025 
z"/>
<path fill="#DF3B3C" opacity="1.000000" stroke="none" 
	d="
M219.117554,29.957611 
	C231.391281,34.284763 242.643539,40.481834 252.945526,48.422607 
	C254.220978,49.405731 255.528564,50.347145 256.665131,51.873550 
	C256.381348,53.237526 255.950516,54.134041 256.172424,54.819099 
	C258.664795,62.513229 255.035049,69.009026 252.557800,75.953873 
	C250.746506,75.601242 249.311554,75.321877 247.876602,75.042511 
	C233.762375,62.273895 217.617935,53.118240 199.159485,47.048271 
	C199.493713,44.828846 199.721817,43.142788 200.562546,41.857445 
	C204.949310,35.150711 211.924896,32.359310 219.117554,29.957611 
z"/>
<path fill="#EEEDB4" opacity="1.000000" stroke="none" 
	d="
M81.118767,76.214500 
	C79.664078,77.735710 78.209389,79.256920 76.138901,80.940292 
	C75.029427,81.750755 74.535744,82.399071 74.042061,83.047379 
	C74.042061,83.047379 74.004021,82.998741 73.783691,83.015511 
	C73.404869,83.373520 73.246376,83.714760 73.087883,84.056000 
	C64.117676,94.774712 56.680183,106.450882 50.718849,119.505486 
	C48.110664,118.979408 45.911030,117.922112 43.608978,117.602486 
	C42.483387,117.446205 40.944565,118.428032 40.000221,119.324120 
	C39.065556,120.211021 38.643719,121.638367 37.790024,123.209457 
	C36.499748,121.437637 35.605080,120.209068 34.710411,118.980499 
	C34.631641,119.426109 34.552872,119.871719 34.474102,120.317329 
	C31.601818,120.533104 28.729534,120.748878 25.857250,120.964653 
	C31.187479,102.282745 40.235374,85.657913 54.075920,71.138153 
	C57.153275,71.959824 59.502583,72.925484 62.352135,74.096771 
	C68.142891,73.149864 74.836960,72.055252 82.051788,70.875488 
	C81.618767,73.353371 81.368767,74.783936 81.118767,76.214500 
z"/>
<path fill="#F0F0B8" opacity="1.000000" stroke="none" 
	d="
M25.581264,121.204689 
	C28.729534,120.748878 31.601818,120.533104 34.474102,120.317329 
	C34.552872,119.871719 34.631641,119.426109 34.710411,118.980499 
	C35.605080,120.209068 36.499748,121.437637 37.790024,123.209457 
	C38.643719,121.638367 39.065556,120.211021 40.000221,119.324120 
	C40.944565,118.428032 42.483387,117.446205 43.608978,117.602486 
	C45.911030,117.922112 48.110664,118.979408 50.664162,119.863480 
	C44.532413,134.109329 43.643223,149.426529 41.856079,164.719025 
	C34.149437,164.719025 26.939594,164.719025 19.149378,164.719025 
	C18.402239,149.787918 21.174885,135.528534 25.581264,121.204689 
z"/>
<path fill="#ECEAB0" opacity="1.000000" stroke="none" 
	d="
M81.396957,76.022461 
	C81.368767,74.783936 81.618767,73.353371 82.051788,70.875488 
	C74.836960,72.055252 68.142891,73.149864 62.352135,74.096771 
	C59.502583,72.925484 57.153275,71.959824 54.374943,70.988007 
	C54.913296,69.522377 55.641502,67.806557 56.886696,66.644882 
	C65.232437,58.858891 73.688202,51.190842 82.612801,43.022785 
	C87.473740,50.238529 91.739006,56.570042 96.215950,63.215778 
	C91.278999,67.498749 86.477074,71.664581 81.396957,76.022461 
z"/>
<path fill="#EEEEB7" opacity="1.000000" stroke="none" 
	d="
M280.302063,122.698151 
	C278.822632,119.794830 277.866302,117.207878 281.475098,115.785332 
	C287.585297,113.376755 293.757660,111.125801 300.419891,108.614021 
	C302.130127,113.497643 303.826538,117.924667 305.221558,122.444702 
	C306.569366,126.811600 307.606598,131.274368 308.926758,136.246979 
	C300.784668,137.797287 293.170288,139.247101 285.842773,140.642303 
	C284.020203,134.653900 282.254181,128.851273 280.302063,122.698151 
z"/>
<path fill="#EBE8AD" opacity="1.000000" stroke="none" 
	d="
M127.002007,24.004198 
	C129.916336,23.235752 132.446930,22.620087 135.772263,21.811068 
	C136.869537,26.575624 138.044815,31.096048 138.936020,35.671799 
	C140.711929,44.789799 140.625031,44.724079 131.559677,47.321239 
	C127.916092,48.365097 124.377861,49.791077 120.824295,51.129730 
	C118.406784,52.040432 116.891441,51.553215 115.914383,48.961361 
	C113.945152,43.737511 111.822350,38.567780 109.617950,33.438007 
	C108.583878,31.031651 108.516640,29.439857 111.541763,28.624374 
	C116.601036,27.260542 121.596153,25.658659 127.002007,24.004198 
z"/>
<path fill="#EFF1BB" opacity="1.000000" stroke="none" 
	d="
M24.888308,208.090057 
	C23.873877,203.532532 21.264280,198.695984 22.571199,195.423630 
	C23.588116,192.877441 29.409948,192.032745 33.232967,190.888412 
	C36.776943,189.827606 40.502098,189.372070 43.979588,188.683273 
	C46.388100,196.745193 48.551338,203.986115 50.862186,211.721115 
	C43.920658,214.795456 36.991203,217.864441 29.255661,221.290436 
	C27.746847,216.771225 26.363577,212.628036 24.888308,208.090057 
z"/>
<path fill="#D7393A" opacity="1.000000" stroke="none" 
	d="
M248.016800,75.350006 
	C249.311554,75.321877 250.746506,75.601242 252.557800,75.953873 
	C255.035049,69.009026 258.664795,62.513229 256.172424,54.819099 
	C255.950516,54.134041 256.381348,53.237526 256.808167,52.190414 
	C263.001648,57.382252 268.895966,62.822891 274.869019,68.949875 
	C271.279114,77.127121 267.610443,84.618011 263.941742,92.108894 
	C263.349091,91.629379 262.756409,91.149879 261.995392,90.171921 
	C261.684021,89.377594 261.463654,89.160095 261.165924,89.020958 
	C256.829620,84.566467 252.493301,80.111984 248.016800,75.350006 
z"/>
<path fill="#D9393B" opacity="1.000000" stroke="none" 
	d="
M218.936340,29.630459 
	C211.924896,32.359310 204.949310,35.150711 200.562546,41.857445 
	C199.721817,43.142788 199.493713,44.828846 198.970871,46.724121 
	C192.922455,46.071228 186.886154,45.024254 180.425308,43.524189 
	C181.020630,40.522686 181.656525,37.719975 183.140671,35.479057 
	C186.185135,30.882177 189.684326,26.586447 192.996307,22.166740 
	C201.582581,24.545597 210.168854,26.924452 218.936340,29.630459 
z"/>
<path fill="#D23739" opacity="1.000000" stroke="none" 
	d="
M192.631760,21.974743 
	C189.684326,26.586447 186.185135,30.882177 183.140671,35.479057 
	C181.656525,37.719975 181.020630,40.522686 179.999542,43.452118 
	C175.261185,43.428089 170.524033,43.023041 165.381958,42.583370 
	C165.381958,35.152866 165.381958,27.421474 165.381958,18.270771 
	C174.346451,19.441786 183.306824,20.612265 192.631760,21.974743 
z"/>
<path fill="#D03739" opacity="1.000000" stroke="none" 
	d="
M263.969482,92.463623 
	C267.610443,84.618011 271.279114,77.127121 275.001953,69.253357 
	C278.787506,73.501305 282.518860,78.132118 286.835602,83.489395 
	C280.346771,87.621727 274.341400,91.607948 268.103729,95.189621 
	C267.415588,95.584724 265.398132,93.664650 263.969482,92.463623 
z"/>
<path fill="#ECEAB0" opacity="1.000000" stroke="none" 
	d="
M74.310448,82.924911 
	C74.535744,82.399071 75.029427,81.750755 75.872269,81.109909 
	C75.673904,81.679062 75.126366,82.240746 74.310448,82.924911 
z"/>
<path fill="#ECEAB0" opacity="1.000000" stroke="none" 
	d="
M73.300156,83.942642 
	C73.246376,83.714760 73.404869,83.373520 73.805740,83.038811 
	C73.956543,83.366096 73.777977,83.627411 73.300156,83.942642 
z"/>
<path fill="#D03739" opacity="1.000000" stroke="none" 
	d="
M261.140320,89.283401 
	C261.463654,89.160095 261.684021,89.377594 261.894836,89.899605 
	C261.679962,89.932442 261.397369,89.739143 261.140320,89.283401 
z"/>
</svg>