<?xml version="1.0" standalone="no"?>
<!DOCTYPE svg PUBLIC "-//W3C//DTD SVG 20010904//EN"
 "http://www.w3.org/TR/2001/REC-SVG-20010904/DTD/svg10.dtd">
<svg version="1.0" xmlns="http://www.w3.org/2000/svg"
 width="200.000000pt" height="200.000000pt" viewBox="0 0 200.000000 200.000000"
 preserveAspectRatio="xMidYMid meet">

<g transform="translate(0.000000,200.000000) scale(0.100000,-0.100000)"
fill="#D66371" stroke="none">
<path d="M790 1641 c-72 -23 -219 -95 -280 -136 -27 -18 -75 -48 -107 -65 -32
-18 -69 -43 -83 -55 -14 -13 -64 -48 -112 -79 -48 -31 -90 -61 -93 -66 -4 -6
-1 -19 6 -28 11 -14 11 -15 -1 -4 -20 17 -33 15 -26 -4 5 -14 4 -15 -9 -4 -17
14 -21 1 -5 -18 7 -9 7 -9 -2 -2 -20 17 -30 11 -22 -12 6 -20 5 -21 -10 -9
-29 24 -19 -12 11 -40 24 -22 26 -22 20 -4 -6 18 -6 18 5 3 7 -9 18 -23 23
-32 12 -18 85 -33 85 -18 0 6 -12 24 -26 41 -14 17 -21 31 -16 31 5 0 25 -20
43 -44 31 -41 38 -44 84 -46 108 -5 189 2 237 21 27 10 71 19 99 19 27 0 64 6
82 14 18 7 72 19 119 26 84 11 86 11 136 -14 43 -22 65 -26 132 -26 71 0 87
-4 133 -30 29 -16 80 -39 112 -50 33 -11 73 -33 90 -49 58 -54 241 -156 300
-167 22 -4 43 -11 47 -17 3 -6 34 5 76 27 39 20 75 36 79 36 4 -1 -13 -12 -39
-26 -57 -29 -61 -39 -12 -29 55 10 105 37 99 53 -3 7 -5 20 -5 28 0 9 -4 12
-10 9 -6 -4 -7 1 -3 11 5 13 2 15 -18 10 -23 -7 -23 -7 -4 9 19 15 19 15 -3
31 -12 8 -22 21 -22 28 0 24 -22 36 -44 24 -21 -11 -21 -10 -3 10 13 14 15 22
7 27 -7 4 -17 2 -23 -4 -20 -20 -30 -11 -11 10 19 21 18 21 -5 41 -23 18 -40
41 -57 78 -4 8 -20 30 -36 48 -15 18 -28 37 -28 42 0 5 -13 17 -30 27 -16 9
-30 24 -30 33 0 16 -159 179 -225 231 -22 17 -58 40 -79 51 -37 19 -68 19
-146 1 -80 -19 -105 -15 -190 25 -107 51 -140 56 -210 33z m170 -117 c0 -8 -5
-12 -10 -9 -6 4 -8 11 -5 16 9 14 15 11 15 -7z m70 -36 c0 -7 -4 -19 -9 -27
-11 -17 -23 1 -15 23 7 19 24 21 24 4z m-73 -40 c-3 -8 -6 -5 -6 6 -1 11 2 17
5 13 3 -3 4 -12 1 -19z m34 -41 c-8 -8 -11 -5 -11 9 0 27 14 41 18 19 2 -9 -1
-22 -7 -28z m429 -44 c-1 -10 -26 -43 -33 -43 -3 0 0 11 6 25 11 23 27 34 27
18z m-430 -23 c0 -11 -7 -37 -15 -57 -8 -19 -15 -51 -15 -69 0 -19 -5 -34 -11
-34 -12 0 -7 48 13 133 12 48 28 64 28 27z m420 -40 c-6 -11 -13 -20 -16 -20
-2 0 0 9 6 20 6 11 13 20 16 20 2 0 0 -9 -6 -20z m-322 -22 c-4 -29 -24 -34
-31 -8 -4 18 -3 19 9 9 12 -10 13 -9 8 5 -3 9 -1 16 6 16 6 0 10 -10 8 -22z
m397 -7 c-3 -6 -11 -11 -17 -11 -6 0 -6 6 2 15 14 17 26 13 15 -4z m-345 -61
c-16 -31 -23 -18 -8 15 7 15 14 23 16 17 2 -6 -2 -21 -8 -32z m152 8 c-12 -12
-25 -18 -29 -14 -4 4 3 16 17 26 14 10 27 17 29 14 3 -2 -5 -14 -17 -26z
m-722 -65 c0 -7 -23 8 -47 30 -13 11 -23 26 -23 33 0 7 16 -3 35 -23 19 -20
35 -38 35 -40z m1053 5 c-18 -18 -35 -29 -39 -26 -7 8 45 57 61 58 5 0 -5 -14
-22 -32z m-308 12 c-3 -5 -11 -10 -16 -10 -6 0 -7 5 -4 10 3 6 11 10 16 10 6
0 7 -4 4 -10z m122 -26 c-3 -3 -12 -4 -19 -1 -8 3 -5 6 6 6 11 1 17 -2 13 -5z
m293 2 c0 -3 -4 -8 -10 -11 -5 -3 -10 -1 -10 4 0 6 5 11 10 11 6 0 10 -2 10
-4z m-110 -66 c0 -5 -5 -10 -11 -10 -5 0 -7 5 -4 10 3 6 8 10 11 10 2 0 4 -4
4 -10z m-30 -20 c0 -5 -8 -10 -17 -10 -15 0 -16 2 -3 10 19 12 20 12 20 0z
m50 -155 c-7 -9 -15 -13 -17 -11 -7 7 7 26 19 26 6 0 6 -6 -2 -15z"/>
<path d="M504 1035 c-12 -8 -24 -12 -27 -9 -3 4 -19 -4 -34 -16 -22 -18 -29
-19 -31 -7 -4 19 -64 7 -92 -18 -14 -13 -28 -15 -58 -10 -37 6 -40 5 -52 -27
-8 -18 -20 -37 -27 -41 -19 -11 23 -82 95 -163 52 -59 58 -63 70 -47 12 16 13
14 7 -14 -6 -28 -3 -34 17 -44 13 -6 42 -34 65 -63 31 -39 54 -56 92 -70 27
-9 57 -28 65 -41 19 -29 141 -77 267 -105 109 -24 245 -26 339 -6 154 34 408
135 475 190 24 20 28 27 18 37 -16 16 -17 29 -3 29 6 0 10 -7 10 -15 0 -12 7
-14 28 -9 48 12 51 20 25 75 -19 40 -27 48 -38 39 -11 -9 -14 -6 -17 11 -5 33
-25 34 -42 2 -10 -19 -15 -23 -16 -11 0 21 -106 128 -126 128 -8 0 -14 4 -14
9 0 19 -87 92 -122 103 -33 10 -41 8 -85 -19 -26 -16 -65 -35 -85 -42 -43 -14
-179 -11 -190 4 -5 6 -15 5 -28 -3 -17 -10 -25 -10 -36 -1 -8 7 -27 9 -48 5
-20 -4 -37 -2 -41 4 -3 5 -17 10 -30 10 -13 0 -27 5 -30 10 -4 6 -21 16 -38
24 -18 7 -46 28 -62 47 -41 45 -77 63 -114 56 -17 -4 -33 -2 -36 3 -9 14 -27
12 -51 -5z m172 -222 c-27 -52 -49 -143 -40 -166 3 -8 -2 -17 -12 -21 -13 -5
-15 -2 -10 16 4 13 11 49 17 82 11 63 43 136 60 136 6 0 -1 -21 -15 -47z m828
-29 c3 -8 2 -12 -4 -9 -6 3 -10 10 -10 16 0 14 7 11 14 -7z m-724 -31 c-11
-17 -11 -17 -6 0 3 10 6 24 7 30 0 9 2 9 5 0 3 -7 0 -20 -6 -30z m598 -8 c25
-51 27 -59 12 -50 -10 6 -50 78 -50 90 0 18 19 -2 38 -40z m-671 -4 c-7 -17
-16 -29 -19 -25 -7 7 0 33 15 52 16 21 18 7 4 -27z m-337 -8 c-11 -17 -11 -17
-6 0 3 10 6 24 7 30 0 9 2 9 5 0 3 -7 0 -20 -6 -30z m637 -25 c-2 -13 -4 -5
-4 17 -1 22 1 32 4 23 2 -10 2 -28 0 -40z m-151 -3 c-1 -55 -16 -61 -16 -7 0
32 6 52 15 52 1 0 1 -20 1 -45z m-101 16 c-8 -13 -35 -15 -35 -2 0 5 8 11 18
13 21 5 26 2 17 -11z m771 -26 c8 -34 7 -50 -1 -62 -10 -13 -12 -11 -12 13 -1
16 -3 44 -6 62 -7 48 7 39 19 -13z m-700 19 c-3 -9 -6 -18 -6 -20 0 -2 -7 -4
-15 -4 -18 0 -19 6 -2 25 16 19 31 19 23 -1z m743 -64 l1 -25 -13 25 c-7 14
-11 39 -8 55 l5 30 7 -30 c4 -16 7 -41 8 -55z m41 -44 c-12 -13 -23 32 -14 62
7 26 7 25 15 -13 4 -22 3 -44 -1 -49z m-200 37 c0 -20 -3 -24 -11 -16 -7 7 -9
19 -6 27 10 24 17 19 17 -11z m-730 -14 c0 -6 9 -9 20 -6 13 3 21 -1 25 -13 8
-25 -5 -76 -15 -60 -4 7 -5 21 -3 31 4 13 -2 20 -21 25 -24 6 -38 34 -16 34 6
0 10 -5 10 -11z m980 -21 c0 -5 -4 -8 -10 -8 -5 0 -10 10 -10 23 0 18 2 19 10
7 5 -8 10 -18 10 -22z m-885 -19 c-12 -19 7 -30 21 -12 7 10 14 13 14 6 0 -14
-17 -26 -43 -30 -11 -2 -16 1 -11 8 3 6 0 15 -7 20 -12 8 -12 10 1 18 16 11
33 4 25 -10z m52 -11 c-3 -7 -5 -2 -5 12 0 14 2 19 5 13 2 -7 2 -19 0 -25z
m48 3 c3 -5 1 -12 -5 -16 -5 -3 -10 1 -10 9 0 18 6 21 15 7z m795 5 c0 -3 -4
-8 -10 -11 -5 -3 -10 -1 -10 4 0 6 5 11 10 11 6 0 10 -2 10 -4z"/>
</g>
</svg>
