<?xml version="1.0" standalone="no"?>
<!DOCTYPE svg PUBLIC "-//W3C//DTD SVG 20010904//EN"
 "http://www.w3.org/TR/2001/REC-SVG-20010904/DTD/svg10.dtd">
<svg version="1.0" xmlns="http://www.w3.org/2000/svg"
 width="200.000000pt" height="200.000000pt" viewBox="0 0 200.000000 200.000000"
 preserveAspectRatio="xMidYMid meet">

<g transform="translate(0.000000,200.000000) scale(0.100000,-0.100000)"
fill="#D66371" stroke="none">
<path d="M495 1991 c-109 -28 -175 -113 -175 -226 0 -89 44 -166 114 -199 l33
-16 -14 -62 c-19 -79 -12 -202 14 -280 l20 -58 -41 -24 c-23 -13 -63 -47 -89
-75 -42 -45 -51 -50 -77 -44 -69 13 -164 -52 -190 -132 -18 -56 -8 -137 23
-184 30 -45 90 -81 136 -81 25 0 33 -7 56 -53 15 -28 47 -78 72 -109 52 -67
40 -75 -36 -24 -66 45 -113 60 -168 53 -123 -14 -166 -137 -99 -279 44 -94
120 -152 241 -184 79 -21 1298 -20 1380 1 166 44 265 161 265 315 0 52 -4 64
-30 94 -58 65 -152 73 -238 19 -26 -16 -57 -36 -69 -43 -33 -21 -40 -4 -11 28
31 32 93 129 102 158 5 17 17 23 52 27 91 10 159 92 158 192 0 116 -73 198
-177 200 -49 1 -55 4 -103 52 -28 28 -66 59 -85 68 -19 10 -35 19 -37 20 -2 2
6 34 18 72 25 78 29 212 10 283 -11 40 -10 46 6 55 11 5 40 30 65 56 158 158
14 425 -206 379 -49 -10 -135 -59 -135 -78 0 -4 -7 -15 -15 -26 -13 -17 -16
-17 -82 5 -96 34 -269 34 -362 1 l-63 -23 -35 41 c-58 67 -152 100 -228 81z
m115 -96 c15 -8 38 -27 49 -41 l21 -27 -59 -53 c-33 -30 -72 -74 -88 -99 -15
-25 -33 -45 -40 -45 -23 0 -82 69 -89 105 -22 119 100 215 206 160z m916 -1
c48 -23 74 -70 74 -134 0 -48 -4 -56 -39 -91 -21 -22 -43 -39 -48 -39 -6 0
-23 19 -38 43 -16 23 -55 67 -87 98 -66 63 -67 75 -9 114 42 29 97 33 147 9z
m-446 -65 c296 -47 474 -348 368 -621 -10 -27 -11 -28 -82 -22 -118 10 -228
-26 -316 -104 l-45 -40 -45 38 c-95 79 -213 118 -328 106 l-63 -7 -16 38 c-8
21 -19 65 -23 98 -30 247 141 472 393 514 73 12 84 12 157 0z m-262 -759 c40
-19 82 -50 116 -85 28 -30 59 -55 67 -55 8 0 44 29 80 64 88 85 151 110 269
104 67 -4 96 -10 138 -32 70 -35 128 -95 159 -163 22 -49 25 -65 21 -141 -3
-73 -9 -98 -36 -152 -79 -160 -272 -326 -534 -461 l-99 -51 -121 67 c-296 161
-468 326 -528 505 -43 125 -8 255 91 344 68 61 133 85 234 85 69 1 89 -3 143
-29z m-554 -167 c-4 -10 -10 -62 -12 -115 l-4 -98 -30 16 c-62 32 -74 131 -22
186 32 32 82 40 68 11z m1527 7 c27 -15 49 -63 49 -109 0 -42 -34 -94 -67
-103 -16 -4 -18 3 -18 71 0 42 -4 93 -8 114 -9 40 4 48 44 27z m-1538 -531
c23 -12 56 -32 73 -45 26 -20 43 -24 106 -24 72 0 78 -2 118 -35 50 -42 187
-133 250 -166 l45 -24 -30 -3 c-16 -2 -129 -2 -250 1 -247 5 -282 12 -355 74
-84 73 -112 207 -48 233 34 13 45 12 91 -11z m1601 0 c31 -24 33 -54 10 -124
-22 -63 -78 -117 -150 -146 -55 -21 -76 -23 -309 -27 l-250 -3 95 57 c52 31
130 83 172 115 l77 59 77 0 c70 0 79 3 114 30 41 32 95 59 121 60 9 0 28 -9
43 -21z"/>
<path d="M798 1613 c-36 -9 -33 -67 3 -78 26 -9 49 11 49 41 0 25 -25 43 -52
37z"/>
<path d="M1179 1601 c-26 -21 -19 -56 13 -67 29 -9 62 29 48 56 -14 27 -37 31
-61 11z"/>
<path d="M912 1551 c-127 -44 -184 -164 -129 -271 80 -159 343 -168 433 -14
66 113 4 249 -132 290 -62 19 -108 17 -172 -5z m175 -88 c95 -45 95 -161 0
-204 -111 -50 -243 8 -240 107 3 90 138 146 240 97z"/>
</g>
</svg>
